<svg id="Layer_1" enable-background="new 0 0 256 256" height="512" viewBox="0 0 256 256" width="512" xmlns="http://www.w3.org/2000/svg"><g><g><g><g><g><g><path d="m35.958 67.922-22.809 143.282c-.677 4.251 2.608 8.1 6.913 8.1h76.786.023 76.786c4.305 0 7.59-3.849 6.913-8.1l-22.81-143.285c-4.119-25.874-24.139-46.319-49.92-50.981-7.254-1.312-14.684-1.312-21.938-.001l-.019.003c-25.784 4.661-45.806 25.107-49.925 50.982z" fill="#4671c6"/></g></g></g></g><g><g><g><g><path d="m173.657 221.304h-153.595c-2.638 0-5.133-1.151-6.846-3.158-1.712-2.007-2.457-4.652-2.042-7.257l22.81-143.282 1.975.314-1.975-.314c4.246-26.677 24.96-47.83 51.542-52.635 7.536-1.361 15.156-1.361 22.669-.002 26.581 4.806 47.292 25.958 51.539 52.634l22.81 143.285c.415 2.605-.33 5.25-2.042 7.257s-4.207 3.158-6.845 3.158zm-76.788-203.353c-3.545 0-7.09.318-10.611.955-24.932 4.506-44.344 24.33-48.324 49.331l-22.81 143.282c-.23 1.447.183 2.917 1.135 4.032.951 1.115 2.337 1.754 3.803 1.754h153.595c1.466 0 2.852-.64 3.803-1.754.952-1.115 1.365-2.584 1.135-4.032l-22.81-143.285c-3.979-25-23.39-44.823-48.301-49.327-3.521-.638-7.069-.956-10.615-.956z" fill="#3762cc"/></g></g></g></g><g><g><g><g><path d="m143.716 162.772h-23.47v-17.141h-46.796v17.141h-23.425c-12.936 0-23.423 10.487-23.423 23.423v41.443h140.535v-41.443c.001-12.937-10.486-23.423-23.421-23.423z" fill="#f9cfcf"/></g></g></g></g><g><g><g><g><path d="m167.138 229.638h-140.535c-1.104 0-2-.896-2-2v-41.443c0-14.018 11.404-25.422 25.422-25.422h21.425v-15.143c0-1.104.896-2 2-2h46.796c1.104 0 2 .896 2 2v15.142h21.47c14.018 0 25.423 11.404 25.423 25.422v41.443c-.001 1.105-.896 2.001-2.001 2.001zm-138.535-4h136.535v-39.443c0-11.813-9.61-21.422-21.423-21.422h-23.47c-1.104 0-2-.896-2-2v-15.143h-42.795v15.142c0 1.104-.896 2-2 2h-23.425c-11.813 0-21.422 9.61-21.422 21.422z" fill="#3762cc"/></g></g></g></g><g><g><g><g><path d="m147.277 88.106v-4.72c0-.027-.002-.055-.002-.082h-43.995c-1.385 0-2.589-.948-2.916-2.293l-3.806-15.698c-.247-1.019-1.697-1.019-1.944 0l-3.806 15.698c-.326 1.346-1.531 2.293-2.916 2.293h-41.426c0 .028-.002.055-.002.082v4.72c-8.753-.178-15.697 6.795-15.697 15.224 0 9 7.857 16.119 17.028 15.149 5.202 22.1 25.193 38.566 49.075 38.566 23.884 0 43.873-16.467 49.075-38.566 9.159.969 17.028-6.137 17.028-15.149 0-8.433-6.949-15.401-15.696-15.224z" fill="#f9cfcf"/></g></g></g></g><g><g><g><g><path d="m96.864 133.179c-2.054 0-3.845-.241-5.477-.737-2.708-.824-5.083-2.21-6.867-4.008-.778-.784-.773-2.051.011-2.829.784-.777 2.05-.773 2.829.011 1.319 1.33 3.114 2.367 5.191 2.999 1.249.38 2.66.564 4.313.564s3.064-.185 4.313-.564c2.077-.632 3.872-1.668 5.19-2.998.777-.785 2.043-.791 2.828-.012.784.778.79 2.044.012 2.828-1.783 1.798-4.158 3.185-6.866 4.009-1.632.496-3.423.737-5.477.737z" fill="#3762cc"/></g></g></g></g><g><g><g><g><path d="m131.204 96.138h-3.569c-1.16-1.209-2.788-1.966-4.595-1.966-3.519 0-6.371 2.852-6.371 6.371v6.796c0 3.519 2.852 6.371 6.371 6.371s6.371-2.852 6.371-6.371v-6.796c0-.137-.012-.271-.02-.406h1.813c1.104 0 2-.896 2-2s-.896-1.999-2-1.999z" fill="#3762cc"/></g></g></g></g><g><g><g><g><path d="m70.689 94.172c-1.808 0-3.436.756-4.595 1.966h-3.569c-1.104 0-2 .896-2 2s.896 2 2 2h1.814c-.008.135-.02.269-.02.406v6.796c0 3.519 2.852 6.371 6.371 6.371s6.371-2.852 6.371-6.371v-6.796c-.001-3.519-2.854-6.372-6.372-6.372z" fill="#3762cc"/></g></g></g></g><g><g><g><g><path d="m96.859 25.638c-29.823 0-54 24.177-54 54v3.667h45.034c1.385 0 2.589-.948 2.916-2.293l3.806-15.698c.247-1.019 1.697-1.019 1.944 0l3.806 15.698c.326 1.346 1.531 2.293 2.916 2.293h47.58v-3.667c-.002-29.824-24.178-54-54.002-54z" fill="#4671c6"/></g></g></g></g><g><g><g><g><path d="m154.037 227.638h-116v-30.333c0-3.314 2.686-6 6-6h104c3.314 0 6 2.686 6 6z" fill="#e0ebfc"/></g></g></g></g><g><g><g><g><path d="m154.037 229.638h-116c-1.104 0-2-.896-2-2v-30.333c0-4.411 3.589-8 8-8h104c4.411 0 8 3.589 8 8v30.333c0 1.104-.895 2-2 2zm-114-4h112v-28.333c0-2.206-1.794-4-4-4h-104c-2.206 0-4 1.794-4 4z" fill="#3762cc"/></g></g></g></g><g><g><g><g><path d="m150.859 85.304h-47.58c-2.315 0-4.313-1.571-4.859-3.822l-2.833-11.689-2.833 11.689c-.546 2.25-2.544 3.822-4.859 3.822h-45.036c-1.104 0-2-.896-2-2v-3.667c0-16.119 6.954-31.466 19.079-42.106.831-.729 2.094-.645 2.823.184.729.831.646 2.094-.184 2.823-11.26 9.88-17.717 24.132-17.717 39.1v1.667h43.034c.463 0 .863-.314.972-.764l3.806-15.698c.328-1.35 1.526-2.293 2.916-2.293s2.588.943 2.916 2.293l3.805 15.698c.109.45.509.764.972.764h45.58v-1.667c0-14.957-6.473-29.208-17.759-39.099-.831-.728-.914-1.991-.186-2.822.727-.831 1.99-.915 2.822-.186 12.153 10.651 19.123 25.998 19.123 42.107v3.667c-.002 1.104-.897 1.999-2.002 1.999z" fill="#3762cc"/></g></g></g></g><g><g><g><g><path d="m159.032 38.24-1.487-3.236c-.642-1.398-2.629-1.398-3.271 0l-1.487 3.236c-1.08 2.351-2.989 4.221-5.361 5.254l-2.125.925c-1.442.628-1.442 2.673 0 3.301l2.124.925c2.372 1.033 4.281 2.903 5.361 5.254l1.487 3.236c.642 1.398 2.629 1.398 3.271 0l1.487-3.236c1.08-2.351 2.989-4.221 5.361-5.254l2.124-.925c1.442-.628 1.442-2.673 0-3.301l-2.125-.925c-2.37-1.032-4.279-2.903-5.359-5.254z" fill="#a4c9ff"/></g></g></g></g><g><g><g><g><path d="m171.895 63.407-1.188-2.586c-.513-1.117-2.101-1.117-2.614 0l-1.188 2.586c-.863 1.879-2.388 3.373-4.284 4.198l-1.698.739c-1.152.502-1.152 2.136 0 2.638l1.698.739c1.896.825 3.421 2.32 4.284 4.198l1.188 2.586c.513 1.117 2.101 1.117 2.614 0l1.188-2.586c.863-1.879 2.388-3.373 4.284-4.198l1.698-.739c1.152-.502 1.152-2.136 0-2.638l-1.698-.739c-1.896-.825-3.421-2.319-4.284-4.198z" fill="#a4c9ff"/></g></g></g></g><g><g><g><g><g><path d="m23.032 164.641-1.487 3.236c-.642 1.398-2.629 1.398-3.271 0l-1.487-3.236c-1.08-2.351-2.989-4.221-5.361-5.254l-2.125-.925c-1.442-.628-1.442-2.673 0-3.301l2.124-.925c2.372-1.033 4.281-2.903 5.361-5.254l1.487-3.236c.642-1.398 2.629-1.398 3.271 0l1.487 3.236c1.08 2.351 2.989 4.221 5.361 5.254l2.124.925c1.442.628 1.442 2.673 0 3.301l-2.125.925c-2.37 1.033-4.279 2.903-5.359 5.254z" fill="#a4c9ff"/></g></g></g></g><g><g><g><g><path d="m35.895 139.474-1.188 2.586c-.513 1.117-2.101 1.117-2.614 0l-1.188-2.586c-.863-1.879-2.388-3.373-4.284-4.198l-1.698-.739c-1.152-.502-1.152-2.136 0-2.638l1.698-.739c1.896-.825 3.421-2.32 4.284-4.198l1.188-2.586c.513-1.117 2.101-1.117 2.614 0l1.188 2.586c.863 1.879 2.388 3.373 4.284 4.198l1.698.739c1.152.502 1.152 2.136 0 2.638l-1.698.739c-1.896.825-3.421 2.32-4.284 4.198z" fill="#a4c9ff"/></g></g></g></g></g><g><g><g><g><path d="m96.871 159.045c-23.916 0-44.491-15.738-50.611-38.48-4.32.07-8.554-1.556-11.787-4.464-3.625-3.262-5.705-7.917-5.705-12.771 0-4.646 1.835-9.004 5.168-12.27 2.872-2.814 6.553-4.509 10.528-4.88v-2.794c0-.024.001-.088.002-.112.039-1.076.923-1.97 2-1.97h41.427c.463 0 .863-.314.972-.764l3.806-15.698c.328-1.35 1.526-2.293 2.916-2.293s2.588.943 2.916 2.293l3.805 15.698c.109.45.508.764.972.764h43.995c1.104 0 2 .896 2 2l.001 2.876c3.976.371 7.656 2.065 10.529 4.88 3.333 3.266 5.168 7.624 5.168 12.27 0 4.854-2.079 9.508-5.704 12.77-3.233 2.909-7.468 4.525-11.789 4.465-6.119 22.742-26.693 38.48-50.609 38.48zm-49.074-42.566c.918 0 1.731.631 1.945 1.542 5.131 21.799 24.511 37.024 47.128 37.024s41.997-15.225 47.128-37.024c.231-.98 1.153-1.637 2.157-1.531 3.812.402 7.615-.823 10.438-3.364 2.783-2.504 4.379-6.075 4.379-9.796 0-3.562-1.409-6.905-3.968-9.413-2.584-2.533-6.025-3.888-9.688-3.812-.572.008-1.057-.195-1.44-.571-.384-.376-.6-.891-.6-1.429v-2.802h-41.998c-2.315 0-4.314-1.572-4.859-3.822l-2.833-11.689-2.833 11.689c-.545 2.25-2.544 3.822-4.859 3.822h-39.43v2.802c0 .538-.216 1.052-.6 1.428s-.914.591-1.44.571c-3.672-.077-7.104 1.279-9.688 3.812-2.559 2.507-3.968 5.851-3.968 9.413 0 3.722 1.597 7.292 4.381 9.798 2.822 2.54 6.625 3.763 10.437 3.362.07-.007.141-.01.211-.01zm101.48-28.373h.01z" fill="#3762cc"/></g></g></g></g></g><g><g><g><g><g><path d="m164.325 112.978h11.527v32.116h-11.527z" fill="#e0ebfc"/></g></g></g></g><g><g><g><g><path d="m150.783 106.39c-.467 0-.846.379-.846.846v4.895c0 .467.379.846.846.846h36.805v4.735h12.146v-4.735-3.294-.294c0-1.657-1.343-3-3-3h-45.951z" fill="#e0ebfc"/></g></g></g></g><g><g><g><g><path d="m175.853 147.094h-11.527c-1.104 0-2-.896-2-2v-32.116c0-1.104.896-2 2-2h11.527c1.104 0 2 .896 2 2v32.116c0 1.104-.896 2-2 2zm-9.528-4h7.527v-28.116h-7.527z" fill="#3762cc"/></g></g></g></g><g><g><g><g><path d="m199.734 119.713h-12.146c-1.104 0-2-.896-2-2v-2.735h-34.805c-1.569 0-2.846-1.277-2.846-2.847v-4.895c0-1.569 1.277-2.846 2.846-2.846h45.951c2.757 0 5 2.243 5 5v8.323c0 1.104-.895 2-2 2zm-10.146-4h8.146v-6.323c0-.551-.449-1-1-1h-44.797v2.588h35.651c1.104 0 2 .896 2 2z" fill="#3762cc"/></g></g></g></g><g><g><g><g><path d="m178.975 165.063h-17.773c-1.402 0-2.539-1.137-2.539-2.539v-33.008c0-1.402 1.137-2.539 2.539-2.539h17.773c1.402 0 2.539 1.137 2.539 2.539v33.008c.001 1.403-1.136 2.539-2.539 2.539z" fill="#a4c9ff"/></g></g></g></g><g><g><g><g><path d="m178.976 167.063h-17.773c-2.503 0-4.539-2.036-4.539-4.539v-33.008c0-2.503 2.036-4.54 4.539-4.54h17.773c2.503 0 4.539 2.037 4.539 4.54v33.008c0 2.503-2.036 4.539-4.539 4.539zm-17.774-38.086c-.297 0-.539.242-.539.54v33.008c0 .297.242.539.539.539h17.773c.297 0 .539-.242.539-.539v-33.008c0-.297-.242-.54-.539-.54z" fill="#3762cc"/></g></g></g></g><g><g><g><g><path d="m198.864 240.046h-57.551c-1.87 0-3.386-1.516-3.386-3.386v-86.123c0-7.012 5.684-12.696 12.696-12.696h38.93c7.012 0 12.696 5.684 12.696 12.696v86.123c.001 1.87-1.515 3.386-3.385 3.386z" fill="#6bdddd"/></g></g></g></g><g><g><g><g><path d="m189.554 231.889h-38.93c-2.503 0-4.54-2.036-4.54-4.539v-66.796c0-2.503 2.037-4.539 4.54-4.539h38.93c2.503 0 4.539 2.036 4.539 4.539v66.796c0 2.503-2.036 4.539-4.539 4.539zm-38.93-71.874c-.297 0-.54.242-.54.539v66.796c0 .297.242.539.54.539h38.93c.297 0 .539-.242.539-.539v-66.796c0-.297-.242-.539-.539-.539z" fill="#3762cc"/></g></g></g></g><g><g><g><g><path d="m198.864 242.046h-57.551c-2.97 0-5.386-2.416-5.386-5.386v-86.123c0-8.104 6.593-14.696 14.696-14.696h38.93c8.104 0 14.696 6.592 14.696 14.696v86.123c.001 2.97-2.415 5.386-5.385 5.386zm-48.24-102.204c-5.898 0-10.696 4.798-10.696 10.696v86.123c0 .764.622 1.386 1.386 1.386h57.551c.764 0 1.386-.622 1.386-1.386v-86.123c0-5.897-4.798-10.696-10.696-10.696z" fill="#3762cc"/></g></g></g></g></g><g><g><g><g><path d="m241.78 240.046h-54.266c-3.314 0-6-2.686-6-6v-24c0-.552.448-1 1-1h64.266c.552 0 1 .448 1 1v24c0 3.314-2.686 6-6 6z" fill="#a4c9ff"/></g></g></g></g><g><g><g><g><path d="m242.28 209.046h-56.5l.132-.895c1.052-7.127 5.478-13.308 11.886-16.599l2.043-1.049c1.6-.821 3.292-1.447 5.042-1.862l13.546-3.216c.729-.173 1.383.488 1.201 1.215l-.541 2.165c-.447 1.788.643 3.599 2.432 4.041l5.503.372c5.23.354 9.833 3.577 11.955 8.37z" fill="#e0ebfc"/></g></g></g></g><g><g><g><g><path d="m241.78 242.046h-54.266c-4.411 0-8-3.589-8-8v-24c0-1.654 1.346-3 3-3h64.266c1.654 0 3 1.346 3 3v24c0 4.412-3.589 8-8 8zm-58.265-31v23c0 2.206 1.794 4 4 4h54.266c2.206 0 4-1.794 4-4v-23z" fill="#3762cc"/></g></g></g></g><g><g><g><g><path d="m242.28 211.046h-56.5c-.582 0-1.134-.253-1.514-.693s-.549-1.024-.464-1.599l.132-.895c1.143-7.747 5.984-14.508 12.951-18.085l2.043-1.049c1.743-.895 3.591-1.578 5.494-2.029l13.546-3.216c1.027-.246 2.084.06 2.827.811.742.751 1.032 1.812.775 2.836l-.541 2.164c-.086.346-.033.704.151 1.009.16.266.402.463.69.566l5.289.357c5.99.405 11.22 4.067 13.649 9.557l3.3 7.457c.273.619.216 1.334-.153 1.901s-.998.908-1.675.908zm-54.133-4h51.061l-2.057-4.648c-1.826-4.127-5.758-6.88-10.26-7.184l-5.502-.372c-.116-.008-.231-.026-.345-.054-1.385-.342-2.553-1.204-3.289-2.426-.735-1.222-.95-2.657-.604-4.042l.143-.57-11.947 2.836c-1.59.377-3.134.948-4.59 1.695l-2.043 1.049c-5.4 2.774-9.271 7.834-10.567 13.716z" fill="#3762cc"/></g></g></g></g></g></svg>