<?xml version="1.0" encoding="iso-8859-1"?>
<!-- Generator: Adobe Illustrator 19.0.0, SVG Export Plug-In . SVG Version: 6.00 Build 0)  -->
<svg version="1.1" id="Layer_1" xmlns="http://www.w3.org/2000/svg" xmlns:xlink="http://www.w3.org/1999/xlink" x="0px" y="0px"
	 viewBox="0 0 512 512" style="enable-background:new 0 0 512 512;" xml:space="preserve">
<path style="fill:#FCD577;" d="M222.976,81.603c0-18.23,14.784-33.014,33.025-33.014c18.241,0,33.025,14.784,33.025,33.014"/>
<g>
	<path style="fill:#EAC36E;" d="M96.982,456.873v42.756H63.153l5.955-9.489c3.82-6.077,2.785-14.201-2.774-18.747
		c-4.194-3.446-6.88-8.664-6.88-14.52"/>
	<path style="fill:#EAC36E;" d="M452.545,456.873c0,5.856-2.686,11.074-6.88,14.52c-5.559,4.546-6.594,12.671-2.774,18.747
		l5.955,9.489h-33.828v-42.756"/>
</g>
<rect x="8.256" y="312.768" style="fill:#FCD577;" width="495.483" height="144.099"/>
<rect x="109.466" y="81.605" style="fill:#BA6B24;" width="293.063" height="231.163"/>
<path style="fill:#7190A5;" d="M145.796,276.442c-8.062-52.837-8.062-105.672,0-158.508c57.585-7.396,115.172-7.396,172.758,0
	c8.062,52.836,8.062,105.672,0,158.508C260.968,283.839,203.383,283.839,145.796,276.442z"/>
<path style="fill:#5E7D8E;" d="M178.388,256.727c-4.55-39.693-4.55-79.384,0-119.077c1.335-11.649,10.682-20.802,22.351-21.955
	c16.35-1.615,32.699-2.629,49.049-3.057c-34.664-0.908-69.328,0.844-103.992,5.297c-8.061,52.836-8.061,105.672,0,158.508
	c34.664,4.453,69.328,6.205,103.992,5.297c-16.35-0.428-32.699-1.442-49.049-3.057C189.071,277.529,179.724,268.375,178.388,256.727
	z"/>
<g>
	<circle style="fill:#7190A5;" cx="365.222" cy="131.01" r="13.21"/>
	<circle style="fill:#7190A5;" cx="365.222" cy="186.052" r="13.21"/>
</g>
<path d="M503.744,304.513h-92.956V81.607c0-4.56-3.695-8.256-8.256-8.256H296.452c-1.344-6.593-4.269-12.614-8.354-17.662
	l37.479-37.479c3.224-3.224,3.224-8.452,0-11.675c-3.225-3.224-8.452-3.224-11.676,0l-38.602,38.599
	c-5.763-3.06-12.329-4.802-19.298-4.802c-6.968,0-13.535,1.742-19.299,4.803L198.101,6.534c-3.224-3.224-8.452-3.224-11.675,0
	c-3.224,3.224-3.224,8.452,0,11.675l37.48,37.479c-4.085,5.047-7.011,11.069-8.354,17.662H109.469c-4.56,0-8.256,3.697-8.256,8.256
	v38.393c0,4.56,3.697,8.256,8.256,8.256c4.56,0,8.256-3.697,8.256-8.256V89.863h276.549v214.65H117.725V147.52
	c0-4.56-3.697-8.256-8.256-8.256c-4.56,0-8.256,3.697-8.256,8.256v156.993H8.256c-4.56,0-8.256,3.697-8.256,8.256v144.103
	c0,4.56,3.697,8.256,8.256,8.256h44.239c1.569,4.892,4.517,9.29,8.613,12.655c2.228,1.822,2.672,5.319,1.007,7.967l-5.955,9.489
	c-1.597,2.545-1.685,5.756-0.231,8.385c1.453,2.629,4.221,4.26,7.225,4.26h33.828c4.56,0,8.256-3.697,8.256-8.256v-34.5h191.736
	c4.561,0,8.256-3.697,8.256-8.256s-3.695-8.256-8.256-8.256H181.675V321.025h148.65v127.59h-5.831c-4.561,0-8.256,3.697-8.256,8.256
	s3.695,8.256,8.256,8.256h82.267v34.5c0,4.56,3.695,8.256,8.256,8.256h33.828c3.004,0,5.771-1.631,7.225-4.261
	c1.453-2.629,1.364-5.84-0.232-8.384l-5.959-9.495c-1.661-2.643-1.216-6.14,1.025-7.973c4.086-3.356,7.031-7.752,8.6-12.643h44.239
	c4.561,0,8.256-3.697,8.256-8.256V312.769C512,308.209,508.303,304.513,503.744,304.513z M256.001,56.845
	c10.763,0,19.94,6.9,23.349,16.506h-46.698C236.06,63.745,245.237,56.845,256.001,56.845z M88.726,491.372H77.763
	c3.939-9.12,1.604-19.875-6.058-26.244h17.02v26.244H88.726z M165.163,448.617H16.512V321.025h148.65V448.617z M495.488,321.025
	v55.539h-148.65v-55.539H495.488z M434.236,491.372h-10.962v-26.244h17.021C432.631,471.509,430.301,482.26,434.236,491.372z
	 M346.837,448.617v-55.539h148.649v55.539H346.837z"/>
<path d="M144.745,284.631c29.007,3.726,58.218,5.589,87.43,5.589s58.423-1.863,87.431-5.589c3.653-0.469,6.553-3.302,7.109-6.944
	c8.151-53.416,8.151-107.583,0-160.998c-0.556-3.642-3.457-6.474-7.11-6.944c-58.013-7.453-116.845-7.453-174.86,0
	c-3.654,0.469-6.554,3.302-7.109,6.944c-8.151,53.416-8.151,107.583,0,160.998C138.19,281.328,141.091,284.162,144.745,284.631z
	 M153.054,125.355c52.537-6.249,105.705-6.249,158.242,0c6.693,47.701,6.693,95.965,0,143.665
	c-52.537,6.251-105.705,6.251-158.242,0C146.361,221.32,146.361,173.056,153.054,125.355z"/>
<path d="M134.744,359.243c1.377,3.263,4.686,5.318,8.228,5.075c3.64-0.25,6.793-3.029,7.492-6.616
	c1.405-7.213-6.957-12.603-12.948-8.293C134.464,351.604,133.28,355.774,134.744,359.243z"/>
<path d="M211.339,351.504c-4.119-6.027-13.78-4.03-15.011,3.221c-1.265,7.45,7.798,12.538,13.531,7.612
	C212.988,359.65,213.6,354.937,211.339,351.504z"/>
<path d="M413.54,353.298c1.109,2.838,3.927,4.813,6.935,5.068c3.695,0.313,7.199-1.966,8.459-5.444
	c1.27-3.508-0.084-7.578-3.186-9.642c-2.737-1.822-6.365-1.824-9.115-0.035C413.368,345.368,412.025,349.702,413.54,353.298z"/>
<path d="M428.787,417.488c-2.846-6.719-12.691-6.641-15.32,0.188c-2.666,6.925,4.799,13.644,11.401,10.333
	C428.664,426.105,430.443,421.421,428.787,417.488z"/>
<path d="M376.233,219.625h-22.017c-4.561,0-8.256,3.697-8.256,8.256s3.695,8.256,8.256,8.256h22.017
	c4.561,0,8.256-3.697,8.256-8.256S380.793,219.625,376.233,219.625z"/>
<path d="M376.233,270.263h-22.017c-4.561,0-8.256,3.697-8.256,8.256s3.695,8.256,8.256,8.256h22.017
	c4.561,0,8.256-3.697,8.256-8.256S380.793,270.263,376.233,270.263z"/>
<path d="M376.233,244.944h-22.017c-4.561,0-8.256,3.697-8.256,8.256s3.695,8.256,8.256,8.256h22.017
	c4.561,0,8.256-3.697,8.256-8.256S380.793,244.944,376.233,244.944z"/>
<path d="M365.224,152.474c11.836,0,21.466-9.63,21.466-21.466s-9.63-21.466-21.466-21.466s-21.466,9.63-21.466,21.466
	S353.389,152.474,365.224,152.474z M365.224,126.054c2.731,0,4.954,2.223,4.954,4.954c0,2.731-2.223,4.954-4.954,4.954
	s-4.954-2.223-4.954-4.954C360.271,128.277,362.493,126.054,365.224,126.054z"/>
<path d="M365.224,207.515c11.836,0,21.466-9.63,21.466-21.466c0-11.836-9.63-21.466-21.466-21.466s-21.466,9.63-21.466,21.466
	C343.758,197.885,353.389,207.515,365.224,207.515z M365.224,181.096c2.731,0,4.954,2.223,4.954,4.954
	c0,2.731-2.223,4.954-4.954,4.954s-4.954-2.223-4.954-4.954C360.271,183.318,362.493,181.096,365.224,181.096z"/>
<g>
</g>
<g>
</g>
<g>
</g>
<g>
</g>
<g>
</g>
<g>
</g>
<g>
</g>
<g>
</g>
<g>
</g>
<g>
</g>
<g>
</g>
<g>
</g>
<g>
</g>
<g>
</g>
<g>
</g>
</svg>
