<svg height="512" viewBox="0 0 64 64" width="512" xmlns="http://www.w3.org/2000/svg"><g id="work-home-desk-house-file"><path d="m60.41 20.05a1.991 1.991 0 0 1 .76 2.61l-.2.41a1.992 1.992 0 0 1 -2.82.81l-1.15-.69-23.97-14.43a2 2 0 0 0 -2.06 0l-23.97 14.43-1.15.69a1.992 1.992 0 0 1 -2.82-.81l-.2-.41a1.991 1.991 0 0 1 .76-2.61l27.38-16.43a2 2 0 0 1 2.06 0l15.96 9.58 8.01 4.8z" fill="#ff3051"/><path d="m59 57a2.006 2.006 0 0 1 2 2 2.015 2.015 0 0 1 -2 2h-54a2.006 2.006 0 0 1 -2-2 2.015 2.015 0 0 1 2-2z" fill="#806749"/><path d="m57 3a2.006 2.006 0 0 1 2 2 2.015 2.015 0 0 1 -2 2h-8.01a2 2 0 0 1 -1.99-2 2.015 2.015 0 0 1 2-2z" fill="#ff3051"/><path d="m7 57v-33.81l23.97-14.43a2 2 0 0 1 2.06 0l23.97 14.43v33.81z" fill="#e0e0e2"/><path d="m57 7v11l-8.01-4.8v-6.2h.01z" fill="#c0ab91"/><path d="m52 37v6h-20v-8h18a2.006 2.006 0 0 1 2 2z" fill="#806749"/><path d="m52 37v6h-4v-6a2.006 2.006 0 0 0 -2-2h4a2.006 2.006 0 0 1 2 2z" fill="#6a563d"/><path d="m46 43h4v14h-4z" fill="#a78966"/><path d="m46 43v14h-28v-14h14z" fill="#e0e0e2"/><path d="m45 27v4h-2-6v-4z" fill="#2488ff"/><path d="m43 31v4h-8v-4h2z" fill="#fee9ab"/><path d="m32 35v8h-20v-6a2.006 2.006 0 0 1 2-2z" fill="#806749"/><path d="m25 27h4v8h-4z" fill="#ff3051"/><path d="m25 27v8h-4v-10h4z" fill="#ffcd00"/><path d="m21 25v10h-4v-12h4z" fill="#9cdd05"/><path d="m14 43h4v14h-4z" fill="#a78966"/><path d="m57 23.19v33.81h-4v-33.81l-23-13.85.97-.58a2 2 0 0 1 2.06 0z" fill="#c6c5ca"/><path d="m61.17 22.66-.2.41a1.992 1.992 0 0 1 -2.82.81l-1.15-.69-.07-.05a.251.251 0 0 0 .04-.07l.2-.41a1.991 1.991 0 0 0 -.76-2.61l-26.41-15.85.97-.58a2 2 0 0 1 2.06 0l27.38 16.43a1.991 1.991 0 0 1 .76 2.61z" fill="#cd2a00"/><path d="m61 59a2.015 2.015 0 0 1 -2 2h-5a2.015 2.015 0 0 0 2-2 2.006 2.006 0 0 0 -2-2h5a2.006 2.006 0 0 1 2 2z" fill="#5f4d37"/><path d="m59 5a2.015 2.015 0 0 1 -2 2h-3a2.015 2.015 0 0 0 2-2 2.006 2.006 0 0 0 -2-2h3a2.006 2.006 0 0 1 2 2z" fill="#cd2a00"/><path d="m57 7v11l-3-1.8v-9.2z" fill="#a78966"/><path d="m25 38h4v2h-4z"/><path d="m35 38h4v2h-4z"/><path d="m60.02 25.05a2.971 2.971 0 0 0 1.84-1.54l.21-.41a3.022 3.022 0 0 0 -1.14-3.91l-2.93-1.76v-9.61a3 3 0 0 0 -1-5.82h-8a3.009 3.009 0 0 0 -3 3 2.979 2.979 0 0 0 1.99 2.81v3.62l-14.45-8.67a2.988 2.988 0 0 0 -3.08 0l-27.39 16.43a3.022 3.022 0 0 0 -1.14 3.91l.21.41a2.971 2.971 0 0 0 1.84 1.54 3.045 3.045 0 0 0 .84.12 3.033 3.033 0 0 0 1.18-.27v31.1h-1a3 3 0 0 0 0 6h54a3 3 0 0 0 0-6h-1v-31.09a2.986 2.986 0 0 0 2.02.14zm-11.02-21.05h8a1 1 0 0 1 0 2h-8a1 1 0 0 1 0-2zm7 4v8.23l-6.01-3.6v-4.63zm3 50a1 1 0 0 1 0 2h-54a1 1 0 0 1 0-2zm-26-16v-6h17a1 1 0 0 1 1 1v5zm16 2v12h-2v-12zm-36-2v-5a1 1 0 0 1 1-1h17v6zm4 2v12h-2v-12zm1-10v-10h2v10zm4 0v-8h2v8zm4 0v-6h2v6zm-7 10h26v12h-26zm23-12v2h-6v-2zm-4-2v-2h6v2zm13 14h1a1 1 0 0 0 1-1v-6a3.009 3.009 0 0 0 -3-3h-6v-2h1a1 1 0 0 0 1-1v-4a1 1 0 0 0 -1-1h-8a1 1 0 0 0 -1 1v3h-1a1 1 0 0 0 -1 1v3h-4v-7a1 1 0 0 0 -1-1h-3v-1a1 1 0 0 0 -1-1h-3v-1a1 1 0 0 0 -1-1h-4a1 1 0 0 0 -1 1v11h-2a3.009 3.009 0 0 0 -3 3v6a1 1 0 0 0 1 1h1v12h-5v-32.24l23.48-14.14a1.02 1.02 0 0 1 1.04 0l23.48 14.14v32.24h-5zm-17.45-36.09a2.979 2.979 0 0 0 -3.1 0l-25.11 15.12a1.018 1.018 0 0 1 -.8.1.972.972 0 0 1 -.61-.51l-.21-.41a1.021 1.021 0 0 1 .38-1.31l27.39-16.43a1 1 0 0 1 1.02 0l27.39 16.43a1.021 1.021 0 0 1 .38 1.31l-.21.41a.972.972 0 0 1 -.61.51 1.023 1.023 0 0 1 -.8-.1z"/></g></svg>